<svg xmlns="http://www.w3.org/2000/svg" xml:space="preserve" fill="none" stroke-linecap="square" stroke-miterlimit="10" viewBox="0 0 348 348"><clipPath id="a"><path d="M0 0h348v348H0V0z"/></clipPath><g clip-path="url(#a)"><path fill="#fff" d="M-6 0h348v348H-6Z"/><path stroke="#000" stroke-linecap="butt" stroke-linejoin="round" stroke-width="2" d="M5 5.8h337v337.7H5Z"/><path fill="#fff" d="M282.7 40.5c0-8.3 7-15.1 15.6-15.1 4.1 0 8 1.6 11 4.4a15 15 0 0 1 4.6 10.7c0 8.4-7 15.2-15.6 15.2s-15.6-6.8-15.6-15.2z"/><path stroke="#000" stroke-linecap="butt" stroke-linejoin="round" stroke-width="2" d="M282.7 40.5c0-8.3 7-15.1 15.6-15.1 4.1 0 8 1.6 11 4.4a15 15 0 0 1 4.6 10.7c0 8.4-7 15.2-15.6 15.2s-15.6-6.8-15.6-15.2z"/><path fill="#000" stroke="#000" stroke-linecap="butt" stroke-linejoin="round" stroke-width=".7" d="M42.8 116.4h7v2h-7zm49.7 0h7v2h-7zm48 0h7v2h-7zm49.7 0h7v2h-7zm48 0h7v2h-7zm49.6 0h7v2h-7zM43 160.6h7v2h-7zm49.7 0h7v2h-7zm48.1 0h7v2h-7zm49.6 0h7v2h-7zm48 0h7v2h-7zm49.6 0h7v2h-7zM42.4 204.3h7v2h-7zm49.6 0h7v2h-7zm48 0h7v2h-7zm49.7 0h7v2h-7zm48 0h7v2h-7zm49.7 0h7v2h-7zM42.7 248.5h7v2h-7zm49.6 0h7v2h-7zm48 0h7v2h-7zm49.7 0h7v2h-7zm48 0h7v2h-7zm49.6 0h7v2h-7z"/><path stroke="#000" d="M28.4 113.9h36v33.9h-36z"/><path stroke="#000" stroke-linejoin="round" d="M28.4 113.9h36v33.9h-36z"/><path stroke="#000" d="M28.4 157.6h36v34h-36z"/><path stroke="#000" stroke-linejoin="round" d="M28.4 157.6h36v34h-36z"/><path stroke="#000" d="M77.2 113.9h36v33.9h-36Z"/><path stroke="#000" stroke-linejoin="round" d="M77.2 113.9h36v33.9h-36Z"/><path stroke="#000" d="M126 113.9h36v33.9h-36Z"/><path stroke="#000" stroke-linejoin="round" d="M126 113.9h36v33.9h-36Z"/><path stroke="#000" d="M77.2 157.6h36v34h-36Z"/><path stroke="#000" stroke-linejoin="round" d="M77.2 157.6h36v34h-36Z"/><path stroke="#000" d="M126 157.6h36v34h-36Z"/><path stroke="#000" stroke-linejoin="round" d="M126 157.6h36v34h-36Z"/><path stroke="#000" d="M174.8 113.9h36v33.9h-36Z"/><path stroke="#000" stroke-linejoin="round" d="M174.8 113.9h36v33.9h-36Z"/><path stroke="#000" d="M174.8 157.6h36v34h-36Z"/><path stroke="#000" stroke-linejoin="round" d="M174.8 157.6h36v34h-36Z"/><path stroke="#000" d="M223.6 113.9h36v33.9h-36z"/><path stroke="#000" stroke-linejoin="round" d="M223.6 113.9h36v33.9h-36z"/><path stroke="#000" d="M272.4 113.9h36v33.9h-36z"/><path stroke="#000" stroke-linejoin="round" d="M272.4 113.9h36v33.9h-36z"/><path stroke="#000" d="M223.6 157.6h36v34h-36z"/><path stroke="#000" stroke-linejoin="round" d="M223.6 157.6h36v34h-36z"/><path stroke="#000" d="M272.4 157.6h36v34h-36z"/><path stroke="#000" stroke-linejoin="round" d="M272.4 157.6h36v34h-36z"/><path stroke="#000" d="M28.4 201.9h36v33.9h-36z"/><path stroke="#000" stroke-linejoin="round" d="M28.4 201.9h36v33.9h-36z"/><path stroke="#000" d="M28.4 245.6h36v34h-36z"/><path stroke="#000" stroke-linejoin="round" d="M28.4 245.6h36v34h-36z"/><path stroke="#000" d="M77.2 201.9h36v33.9h-36Z"/><path stroke="#000" stroke-linejoin="round" d="M77.2 201.9h36v33.9h-36Z"/><path stroke="#000" d="M126 201.9h36v33.9h-36Z"/><path stroke="#000" stroke-linejoin="round" d="M126 201.9h36v33.9h-36Z"/><path stroke="#000" d="M77.2 245.6h36v34h-36Z"/><path stroke="#000" stroke-linejoin="round" d="M77.2 245.6h36v34h-36Z"/><path stroke="#000" d="M126 245.6h36v34h-36Z"/><path stroke="#000" stroke-linejoin="round" d="M126 245.6h36v34h-36Z"/><path stroke="#000" d="M174.8 201.9h36v33.9h-36Z"/><path stroke="#000" stroke-linejoin="round" d="M174.8 201.9h36v33.9h-36Z"/><path stroke="#000" d="M174.8 245.6h36v34h-36Z"/><path stroke="#000" stroke-linejoin="round" d="M174.8 245.6h36v34h-36Z"/><path stroke="#000" d="M223.6 201.9h36v33.9h-36z"/><path stroke="#000" stroke-linejoin="round" d="M223.6 201.9h36v33.9h-36z"/><path stroke="#000" d="M272.4 201.9h36v33.9h-36z"/><path stroke="#000" stroke-linejoin="round" d="M272.4 201.9h36v33.9h-36z"/><path stroke="#000" d="M223.6 245.6h36v34h-36z"/><path stroke="#000" stroke-linejoin="round" d="M223.6 245.6h36v34h-36z"/><path stroke="#000" d="M272.4 245.6h36v34h-36z"/><path stroke="#000" stroke-linejoin="round" d="M272.4 245.6h36v34h-36z"/></g></svg>