<?xml version="1.0" encoding="UTF-8" standalone="no"?>
<svg
   version="1.1"
   viewBox="-10 0 790 1050"
   id="svg1"
   sodipodi:docname="U+0220.svg"
   width="790"
   height="1050"
   inkscape:version="1.3 (0e150ed6c4, 2023-07-21)"
   xmlns:inkscape="http://www.inkscape.org/namespaces/inkscape"
   xmlns:sodipodi="http://sodipodi.sourceforge.net/DTD/sodipodi-0.dtd"
   xmlns="http://www.w3.org/2000/svg"
   xmlns:svg="http://www.w3.org/2000/svg">
  <defs
     id="defs1" />
  <sodipodi:namedview
     id="namedview1"
     pagecolor="#505050"
     bordercolor="#eeeeee"
     borderopacity="1"
     inkscape:showpageshadow="0"
     inkscape:pageopacity="0"
     inkscape:pagecheckerboard="0"
     inkscape:deskcolor="#505050"
     inkscape:zoom="0.39456558"
     inkscape:cx="20.275463"
     inkscape:cy="790.74307"
     inkscape:window-width="1920"
     inkscape:window-height="1009"
     inkscape:window-x="1280"
     inkscape:window-y="42"
     inkscape:window-maximized="1"
     inkscape:current-layer="svg1" />
  <path
     fill="currentColor"
     d="m 474,1040 v -42 h 13 q 34,0 58,-12.5 Q 569,973 569,926 V 296 Q 569,214 530.5,180 492,146 424,146 q -68,0 -110,28.5 -42,28.5 -61,72 -19,43.5 -19,88.5 v 351 q 0,47 24,59.5 24,12.5 58,12.5 h 13 v 42 H 38 v -42 h 13 q 34,0 58,-12.5 Q 133,733 133,686 V 200 Q 133,153 109,140.5 85,128 51,128 H 38 V 86 h 175 l 15,114 h 4 q 35,-56 89,-90 54,-34 127,-34 67,0 116.5,22.5 49.5,22.5 77.5,72 28,49.5 28,131.5 v 628 q 0,44 24.5,56 24.5,12 57.5,12 h 13 v 42 z"
     id="path1" />
</svg>
