<?xml version="1.0" standalone="no"?>
<!DOCTYPE svg PUBLIC "-//W3C//DTD SVG 1.1//EN" "http://www.w3.org/Graphics/SVG/1.1/DTD/svg11.dtd" >
<svg xmlns="http://www.w3.org/2000/svg" xmlns:xlink="http://www.w3.org/1999/xlink" version="1.1" viewBox="-10 0 1508 2048">
   <path fill="currentColor"
d="M716 1638v-487q0 -188 90 -310t239 -146q-112 -146 -268 -228t-351 -92v515h-100v-512q-150 15 -277 107l-39 -73q126 -86 251.5 -123t267.5 -37q263 0 468 127.5t318.5 361t113.5 515.5q0 221 -63.5 452.5t-157.5 372.5l-62 -31q57 -121 90 -293t33 -362
q0 -168 -44.5 -332.5t-134.5 -303.5q-100 0 -154 75.5t-54 230.5v573h-166z" />
</svg>
