<?xml version="1.0" standalone="no"?>
<!DOCTYPE svg PUBLIC "-//W3C//DTD SVG 1.1//EN" "http://www.w3.org/Graphics/SVG/1.1/DTD/svg11.dtd" >
<svg xmlns="http://www.w3.org/2000/svg" xmlns:xlink="http://www.w3.org/1999/xlink" version="1.1" viewBox="-10 0 1271 2048">
   <path fill="currentColor"
d="M1188 1638h-565v-53l213 -27v-521q-166 100 -353 100q-190 0 -301.5 -121.5t-111.5 -323.5q0 -129 46 -220t125 -140.5t172 -49.5t186 37v237h-66l-30 -139q-40 -49 -101 -49q-72 0 -102.5 77.5t-30.5 246.5q0 175 80.5 252.5t249.5 77.5q108 0 237 -52v-594l-118 -26
v-53h483v53l-172 26v1182l159 27v53z" />
</svg>
