<?xml version="1.0" standalone="no"?>
<!DOCTYPE svg PUBLIC "-//W3C//DTD SVG 1.1//EN" "http://www.w3.org/Graphics/SVG/1.1/DTD/svg11.dtd" >
<svg xmlns="http://www.w3.org/2000/svg" xmlns:xlink="http://www.w3.org/1999/xlink" version="1.1" viewBox="-10 0 1376 2048">
   <path fill="currentColor"
d="M293 921q0 122 46 208.5t132 149t270 128.5q103 38 189 71t147.5 71t96 85.5t34.5 112.5q0 107 -78 176t-238 117v-70q67 -27 109.5 -66.5t42.5 -104.5q0 -56 -58 -96.5t-190 -81.5l-169 -55q-261 -90 -402 -248.5t-141 -370.5q0 -318 180.5 -491.5t513.5 -173.5
q209 0 449 51l6 293h-66l-30 -174q-70 -43 -162.5 -66.5t-188.5 -23.5q-242 0 -367.5 143.5t-125.5 415.5z" />
</svg>
