<?xml version="1.0" standalone="no"?>
<!DOCTYPE svg PUBLIC "-//W3C//DTD SVG 1.1//EN" "http://www.w3.org/Graphics/SVG/1.1/DTD/svg11.dtd" >
<svg xmlns="http://www.w3.org/2000/svg" xmlns:xlink="http://www.w3.org/1999/xlink" version="1.1" viewBox="-10 0 766 1000">
   <path fill="currentColor"
d="M427 800v-42h13q34 0 58 -12.5t24 -59.5v-210q-36 17 -68 31.5t-68 22.5t-84 8q-186 0 -186 -181v-161q0 -44 -24.5 -56t-57.5 -12h-13v-42h291v42h-13q-34 0 -58 12.5t-24 59.5v156q0 61 31 89.5t86 28.5q50 0 93 -13.5t95 -38.5v-222q0 -47 -24 -59.5t-58 -12.5h-13
v-42h291v42h-13q-34 0 -58 12.5t-24 59.5v491q0 44 24.5 55.5t57.5 11.5h13v42h-291z" />
</svg>
