<?xml version="1.0" standalone="no"?>
<!DOCTYPE svg PUBLIC "-//W3C//DTD SVG 1.1//EN" "http://www.w3.org/Graphics/SVG/1.1/DTD/svg11.dtd" >
<svg xmlns="http://www.w3.org/2000/svg" xmlns:xlink="http://www.w3.org/1999/xlink" version="1.1" viewBox="-10 0 1068 1000">
   <path fill="currentColor"
d="M38 800v-42h13q34 0 58 -12.5t24 -59.5v-490q0 -44 -24.5 -56t-57.5 -12h-13v-42h291v42h-13q-34 0 -58 12.5t-24 59.5v202h314l121 -316h73l240 618q11 28 24.5 41t38.5 13h3v42h-236v-42h10q30 -1 42 -12.5t12 -28.5q0 -9 -3 -20.5t-8 -23.5l-83 -221h-49v348h-94v-348
h-49l-79 214q-9 24 -9 43q0 21 12.5 34.5t37.5 14.5h10v42h-205v-42h9q22 0 41 -18.5t35 -59.5l87 -228h-295v234q0 47 24 59.5t58 12.5h13v42h-291zM609 402h155l-21 -57q-16 -42 -29.5 -83t-25.5 -81q-11 36 -26 77t-32 87z" />
</svg>
