<?xml version="1.0" standalone="no"?>
<!DOCTYPE svg PUBLIC "-//W3C//DTD SVG 1.1//EN" "http://www.w3.org/Graphics/SVG/1.1/DTD/svg11.dtd" >
<svg xmlns="http://www.w3.org/2000/svg" xmlns:xlink="http://www.w3.org/1999/xlink" version="1.1" viewBox="-10 0 750 1000">
   <path fill="currentColor"
d="M622 841q-46 0 -84.5 -11.5t-70.5 -31.5q-22 5 -46 8.5t-50 3.5q-106 0 -176 -46t-104.5 -129t-34.5 -194t34.5 -193t105 -127.5t176.5 -45.5q64 0 89 14t25 34q0 13 -5.5 22.5t-12.5 11.5q-22 -14 -45 -21t-51 -7q-112 0 -158.5 82t-46.5 231q0 148 46.5 231t157.5 83
q11 0 22 -1t21 -3q-48 -52 -75 -123t-27 -147q0 -137 52.5 -201.5t136.5 -64.5q56 0 92 24t56 63t28 85t8 91q0 89 -35.5 164.5t-103.5 118.5q17 12 35.5 18.5t41.5 6.5q26 0 42.5 -7t29.5 -23q11 5 16 12t5 21q0 20 -26 35.5t-68 15.5zM495 716q41 -36 60 -97t19 -137
q0 -55 -6.5 -103.5t-22.5 -78.5t-44 -30q-43 0 -60.5 57t-17.5 152q0 76 20.5 136.5t51.5 100.5z" />
</svg>
