<?xml version="1.0" standalone="no"?>
<!DOCTYPE svg PUBLIC "-//W3C//DTD SVG 1.1//EN" "http://www.w3.org/Graphics/SVG/1.1/DTD/svg11.dtd" >
<svg xmlns="http://www.w3.org/2000/svg" xmlns:xlink="http://www.w3.org/1999/xlink" version="1.1" viewBox="-10 0 592 1000">
   <path fill="currentColor"
d="M107 800q-22 0 -37 -13t-15 -58v-261q0 -83 57 -149v-2h-3q-23 0 -35 -17t-12 -55q0 -17 3 -33.5t11 -58.5h27v3q0 25 14 38.5t38 13.5h231q51 0 77 20t35 53.5t9 75.5v368q0 35 -18.5 55t-52.5 20h-329zM109 691h298q20 0 29.5 -13.5t13 -30t3.5 -25.5v-196
q0 -58 -26.5 -83.5t-64.5 -25.5h-194q-22 15 -40.5 57.5t-18.5 93.5v223z" />
</svg>
