<?xml version="1.0" standalone="no"?>
<!DOCTYPE svg PUBLIC "-//W3C//DTD SVG 1.1//EN" "http://www.w3.org/Graphics/SVG/1.1/DTD/svg11.dtd" >
<svg xmlns="http://www.w3.org/2000/svg" xmlns:xlink="http://www.w3.org/1999/xlink" version="1.1" viewBox="-10 0 737 1000">
   <path fill="currentColor"
d="M117 800q-17 -101 -26.5 -176t-9.5 -111q0 -44 12 -99.5t26 -101.5l-19 -3q-25 -4 -37.5 -15t-12.5 -43q0 -19 5.5 -41.5t18.5 -56.5h27v3q0 24 10.5 35t31.5 14l44 7q29 4 34 16.5t5 21.5q0 20 -3.5 41.5t-6.5 35.5l-55 -9q-10 46 -15 94.5t-5 84.5q0 31 6 77.5
t26 116.5h123l64 -379l-22 -3q-25 -4 -37.5 -15t-12.5 -42q0 -22 6 -45t18 -54h27v3q0 24 10.5 35t31.5 14l44 7q29 4 34 16.5t5 21.5q0 20 -3.5 41.5t-6.5 35.5l-47 -7l-63 371h94q36 0 64 -21t49 -56t36 -76t24.5 -82t14.5 -74t6 -51l1 -13l-59 -5q-27 -2 -38.5 -15
t-11.5 -47q0 -18 4.5 -36.5t19.5 -61.5h27v3q0 15 6 30.5t31 17.5l38 3q39 3 36 59l-3 61q-1 25 -6 69t-15 97.5t-27.5 107.5t-44 99t-64 72.5t-87.5 27.5h-322z" />
</svg>
