<?xml version="1.0" standalone="no"?>
<!DOCTYPE svg PUBLIC "-//W3C//DTD SVG 1.1//EN" "http://www.w3.org/Graphics/SVG/1.1/DTD/svg11.dtd" >
<svg xmlns="http://www.w3.org/2000/svg" xmlns:xlink="http://www.w3.org/1999/xlink" version="1.1" viewBox="-10 0 828 1000">
   <path fill="currentColor"
d="M409 810q-37 0 -72 -14t-62 -39q-50 -3 -91 -27.5t-66 -65t-27 -90.5q-24 -26 -38 -60t-14 -71q0 -73 52 -130q2 -49 26 -89.5t65 -66.5t94 -29q26 -24 60.5 -38t72.5 -14t72.5 14t60.5 39q50 2 91 26.5t66 65t27 91.5q25 26 39 59.5t14 71.5q0 37 -13.5 70t-38.5 60
q-1 49 -25.5 90t-66 66t-93.5 29q-26 24 -60.5 38t-72.5 14zM360 414q-25 -43 -25 -94q0 -43 18 -81.5t50.5 -66t75.5 -37.5q-31 -19 -71 -19q-41 0 -75 21t-54 55.5t-20 77.5q0 49 29 89t72 55zM396 385q18 -59 69 -97.5t116 -38.5q25 0 48.5 6.5t43.5 17.5
q-13 -47 -52.5 -76t-87.5 -29q-41 0 -76 20.5t-55.5 55.5t-20.5 79q0 33 15 62zM288 474q38 0 69 -18q-41 -11 -74 -38t-52 -65.5t-19 -82.5q0 -50 25 -94q-44 16 -72.5 54.5t-28.5 88.5q0 42 20.5 77.5t55 56.5t76.5 21zM718 508q15 -30 15 -65q0 -42 -20.5 -76.5
t-54.5 -55t-76 -20.5q-50 0 -89 29.5t-53 75.5q44 -24 93 -24q63 0 114.5 37t70.5 99zM236 595q50 0 89 -29.5t53 -75.5q-43 24 -93 24q-63 0 -114 -37t-70 -98q-16 30 -16 64q0 42 20 76.5t54.5 55t76.5 20.5zM580 709q43 -14 72 -53t29 -89q0 -42 -20.5 -77.5t-54.5 -56.5
t-77 -21q-37 0 -69 18q42 11 74.5 38t51.5 65t19 83q0 51 -25 93zM408 770q42 0 76 -21t54 -56t20 -77q0 -50 -29 -89.5t-73 -54.5q14 22 20 45.5t6 48.5q0 43 -18 81.5t-50.5 65.5t-75.5 38q33 19 70 19zM285 718q42 0 76 -20.5t54.5 -55.5t20.5 -79q0 -16 -3 -32t-11 -30
q-19 58 -70 97t-116 39q-25 0 -48 -6.5t-43 -17.5q14 46 52.5 75.5t87.5 29.5z" />
</svg>
