<?xml version="1.0" standalone="no"?>
<!DOCTYPE svg PUBLIC "-//W3C//DTD SVG 1.1//EN" "http://www.w3.org/Graphics/SVG/1.1/DTD/svg11.dtd" >
<svg xmlns="http://www.w3.org/2000/svg" xmlns:xlink="http://www.w3.org/1999/xlink" version="1.1" viewBox="-10 0 923 1000">
   <path fill="currentColor"
d="M606 810q-207 0 -207 -181q0 -94 -41 -133.5t-130 -39.5h-85v-51h85q44 0 79.5 -19t56.5 -54t21 -82q0 -59 -30.5 -91.5t-102.5 -32.5q-56 0 -85.5 21t-40 54.5t-10.5 73.5q-36 0 -61 -13.5t-25 -51.5q0 -58 56.5 -96t165.5 -38q70 0 123.5 17.5t84 54.5t30.5 95
q0 52 -21.5 89t-58 59.5t-81.5 33.5q29 5 60 14.5t59 27.5t45 49t17 80q0 88 18 126t78 38q57 0 76.5 -35.5t19.5 -96.5v-109q0 -47 -24 -59.5t-58 -12.5h-13v-42h291v42h-13q-33 0 -57.5 12t-24.5 56v114q0 90 -51 135.5t-146 45.5z" />
</svg>
