<?xml version="1.0" standalone="no"?>
<!DOCTYPE svg PUBLIC "-//W3C//DTD SVG 1.1//EN" "http://www.w3.org/Graphics/SVG/1.1/DTD/svg11.dtd" >
<svg xmlns="http://www.w3.org/2000/svg" xmlns:xlink="http://www.w3.org/1999/xlink" version="1.1" viewBox="-10 0 828 1000">
   <path fill="currentColor"
d="M409 810q-38 0 -72.5 -14t-60.5 -38q-52 -4 -93.5 -29t-65.5 -66t-26 -90q-25 -27 -38.5 -60t-13.5 -70q0 -38 14 -71.5t38 -59.5q2 -51 27.5 -91.5t66.5 -65t91 -26.5q26 -25 60.5 -39t72.5 -14t72.5 14t60.5 38q53 3 94 29t65.5 66.5t25.5 89.5q52 57 52 130
q0 37 -14 71t-39 60q-1 50 -26 90.5t-66 65t-91 27.5q-27 25 -61.5 39t-72.5 14zM456 414q44 -15 73 -55t29 -89q0 -43 -20 -77.5t-54 -55.5t-76 -21q-39 0 -70 19q43 10 75.5 37.5t50.5 66t18 81.5q0 25 -6 48.5t-20 45.5zM421 385q15 -29 15 -62q0 -44 -20.5 -79
t-55 -55.5t-76.5 -20.5q-48 0 -87 29t-53 76q20 -11 43.5 -17.5t48.5 -6.5q65 0 116 38.5t69 97.5zM529 474q43 0 77 -21t54.5 -56.5t20.5 -77.5q0 -50 -28.5 -88.5t-72.5 -54.5q25 44 25 94q0 44 -19 82.5t-51.5 65.5t-74.5 38q32 18 69 18zM100 508q20 -62 71 -99t114 -37
q50 0 93 24q-14 -46 -53 -75.5t-89 -29.5q-42 0 -76.5 20.5t-54.5 55t-20 76.5q0 35 15 65zM582 595q42 0 76 -20.5t54.5 -55t20.5 -76.5q0 -34 -16 -64q-19 61 -70 98t-114 37q-49 0 -93 -24q14 46 53 75.5t89 29.5zM237 709q-25 -42 -25 -93q0 -45 19 -83t52 -65t74 -38
q-31 -18 -69 -18q-42 0 -76.5 21t-55 56.5t-20.5 77.5q0 50 29 89t72 53zM408 770q38 0 71 -19q-43 -11 -75.5 -38t-50.5 -65.5t-18 -81.5q0 -51 25 -94q-43 15 -72 54.5t-29 89.5q0 42 20 77t54 56t75 21zM533 718q50 0 88 -29.5t51 -75.5q-42 24 -91 24q-65 0 -116 -39
t-69 -97q-15 28 -15 62q0 44 20.5 79t55.5 55.5t76 20.5z" />
</svg>
