<?xml version="1.0" standalone="no"?>
<!DOCTYPE svg PUBLIC "-//W3C//DTD SVG 1.1//EN" "http://www.w3.org/Graphics/SVG/1.1/DTD/svg11.dtd" >
<svg xmlns="http://www.w3.org/2000/svg" xmlns:xlink="http://www.w3.org/1999/xlink" version="1.1" viewBox="-10 0 593 1000">
   <path fill="currentColor"
d="M282 809q-84 0 -133.5 -37.5t-71.5 -100.5t-22 -137q0 -65 21.5 -118t43.5 -97v-2h-16q-16 0 -32.5 -15.5t-16.5 -58.5q0 -14 3 -31t11 -59h27v5q0 25 14 37.5t38 12.5h219q62 0 94.5 28.5t49.5 86.5q12 40 14.5 75.5t2.5 55.5q0 43 -5 92t-19 95.5t-41.5 84.5
t-71.5 60.5t-109 22.5zM109 515q0 94 44 139.5t132 45.5q191 0 191 -208q0 -45 -10.5 -85t-38 -65t-77.5 -25h-196q-6 14 -16.5 41.5t-19.5 67t-9 89.5z" />
</svg>
