<?xml version="1.0" encoding="UTF-8" standalone="no"?>
<svg
   version="1.1"
   viewBox="-10 0 1152 1000"
   id="svg1"
   sodipodi:docname="U+06DD.svg"
   inkscape:version="1.3 (0e150ed6c4, 2023-07-21)"
   xmlns:inkscape="http://www.inkscape.org/namespaces/inkscape"
   xmlns:sodipodi="http://sodipodi.sourceforge.net/DTD/sodipodi-0.dtd"
   xmlns="http://www.w3.org/2000/svg"
   xmlns:svg="http://www.w3.org/2000/svg">
  <defs
     id="defs1" />
  <sodipodi:namedview
     id="namedview1"
     pagecolor="#505050"
     bordercolor="#eeeeee"
     borderopacity="1"
     inkscape:showpageshadow="0"
     inkscape:pageopacity="0"
     inkscape:pagecheckerboard="0"
     inkscape:deskcolor="#505050"
     inkscape:zoom="0.398"
     inkscape:cx="379.39698"
     inkscape:cy="391.9598"
     inkscape:window-width="1920"
     inkscape:window-height="1009"
     inkscape:window-x="1280"
     inkscape:window-y="42"
     inkscape:window-maximized="1"
     inkscape:current-layer="svg1" />
  <path
     fill="currentColor"
     d="m 1065,465 c 0,-41.16667 2.2517,-82.39496 0,-123.5 -1.6692,-30.47025 -4.5692,-60.9712 -10,-91 -4.2228,-23.34943 -6.3403,-48.05987 -17.5,-69 -9.1591,-17.18609 -23.6608,-31.50167 -39,-43.5 C 981.41081,124.63281 961.61182,114.27312 941,107.5 911.86726,97.926879 880.49018,97.272577 850,94 810.14015,89.721756 770.06659,87.334072 730,86 c -54.30324,-1.808101 -108.66667,0 -163,0 -44.66667,0 -89.34348,-0.951957 -134,0 -35.19065,0.75017 -70.35681,2.524937 -105.5,4.5 -28.69107,1.612451 -57.62283,1.470787 -86,6 -20.87682,3.332099 -41.61675,8.31662 -61.5,15.5 -16.33594,5.90181 -33.3723,11.73059 -47,22.5 -12.2737,9.6994 -21.32376,23.16316 -29.5,36.5 -8.968473,14.62911 -16.40108,30.46838 -21,47 -5.850742,21.03151 -5.917268,43.26943 -8,65 -2.550171,26.60768 -4.582793,53.28613 -5.5,80 -1.166685,33.97998 0,68 0,102 0,33.66667 -1.162486,67.35341 0,101 0.917214,26.5475 2.746193,53.07979 5.5,79.5 2.250487,21.59132 3.012929,43.63364 9,64.5 4.732498,16.49387 11.971398,32.40792 21,47 8.28646,13.39262 17.64558,26.73291 30,36.5 13.68257,10.81709 30.6385,16.95652 47,23 20.02157,7.39541 40.95447,12.44454 62,16 28.03203,4.73576 56.62626,5.22435 85,7 34.96373,2.18806 69.9759,3.74983 105,4.5 44.4898,0.95292 89,0 133.5,0 54.5,0 109.03019,1.81365 163.5,0 40.06659,-1.33407 80.12878,-3.829 120,-8 30.47499,-3.18804 61.83231,-3.61199 91,-13 20.57886,-6.62358 40.38475,-16.79283 57.5,-30 15.5061,-11.96545 30.3518,-26.18174 39.5,-43.5 11.0457,-20.91036 12.4505,-45.70083 16.5,-69 5.2255,-30.0652 8.3308,-60.52975 10,-91 2.27,-41.43787 0,-83 0,-124.5 z M 78,44 C 67.333333,44 58.166667,47.666667 50.5,55 42.833333,62.333333 39,71.333333 39,82 c 0,10.666667 3.666667,19.83333 11,27.5 7.333333,7.66667 16.333333,11.5 27,11.5 10.666667,0 19.666667,-3.83333 27,-11.5 7.33333,-7.66667 11,-16.833333 11,-27.5 C 115,71.333333 111.33333,62.333333 104,55 96.666667,47.666667 88,44 78,44 Z m 0,766 c -10.666667,0 -19.833333,3.66667 -27.5,11 -7.666667,7.33333 -11.5,16.33333 -11.5,27 0,10.66667 3.666667,19.83333 11,27.5 7.333333,7.66667 16.333333,11.5 27,11.5 10.666667,0 19.666667,-3.83333 27,-11.5 7.33333,-7.66667 11,-16.83333 11,-27.5 0,-10.66667 -3.5,-19.66667 -10.5,-27 -7,-7.33333 -15.833333,-11 -26.5,-11 z M 1056,3 c 20,0 37.6667,7.666667 53,23 15.3333,15.333333 23,33.333333 23,54 0,18 -6.1667,34.5 -18.5,49.5 -12.3333,15 -27.1667,24.16667 -44.5,27.5 12.6667,28 20.6667,64 24,108 3.3333,44 5,110.66667 5,200 0,86.66667 -1.6667,152.5 -5,197.5 -3.3333,45 -11.3333,81.5 -24,109.5 17.3333,3.33333 32.1667,12.33333 44.5,27 12.3333,14.66667 18.5,31 18.5,49 0,20.66667 -7.6667,38.83333 -23,54.5 -15.3333,15.66667 -33.3333,23.5 -54,23.5 -20,0 -37.5,-7.33333 -52.5,-22 -15,-14.66667 -23.16667,-32 -24.5,-52 -35.33333,12.66667 -82.16667,20.5 -140.5,23.5 C 779.16667,878.5 689,880 567,880 446.33333,880 356.16667,878.16667 296.5,874.5 236.83333,870.83333 189.33333,862.66667 154,850 c -0.66667,20 -8.66667,37.66667 -24,53 -15.33333,15.33333 -33,23 -53,23 C 56.333333,926 38.333333,918.16667 23,902.5 7.6666667,886.83333 0,868.66667 0,848 0,829.33333 6.5,812.83333 19.5,798.5 32.5,784.16667 48.333333,775.33333 67,772 54.333333,744 46.166667,707.5 42.5,662.5 38.833333,617.5 37,551.66667 37,465 37,380.33333 38.833333,315.16667 42.5,269.5 46.166667,223.83333 54.333333,187 67,159 48.333333,156.33333 32.5,147.5 19.5,132.5 6.5,117.5 0,100.66667 0,82 0,61.333333 7.8333333,43.333333 23.5,28 39.166667,12.666667 57.333333,5 78,5 c 19.333333,0 36.66667,7.333333 52,22 15.33333,14.666667 23.33333,32 24,52 34.66667,-13.333333 81.33333,-21.666667 140,-25 58.66667,-3.333333 149.66667,-5 273,-5 121.33333,0 211.33333,1.5 270,4.5 58.66667,3 105.66667,10.833333 141,23.5 1.33333,-20 9.5,-37.333333 24.5,-52 15,-14.666667 32.8333,-22 53.5,-22 z m 0,39 c -10.6667,0 -19.8333,3.666667 -27.5,11 -7.6667,7.333333 -11.5,16.333333 -11.5,27 0,9.333333 4,18.166667 12,26.5 8,8.33333 16.6667,12.5 26,12.5 10.6667,0 19.6667,-3.83333 27,-11.5 7.3333,-7.666667 11,-16.833333 11,-27.5 0,-10.666667 -3.6667,-19.666667 -11,-27 -7.3333,-7.333333 -16,-11 -26,-11 z m -39,806 c 0,10.66667 3.6667,19.83333 11,27.5 7.3333,7.66667 16.3333,11.5 27,11.5 10.6667,0 19.6667,-3.83333 27,-11.5 7.3333,-7.66667 11,-16.83333 11,-27.5 0,-10.66667 -3.6667,-19.66667 -11,-27 -7.3333,-7.33333 -16,-11 -26,-11 -9.3333,0 -18.1667,4 -26.5,12 -8.3333,8 -12.5,16.66667 -12.5,26 z"
     id="path1"
     inkscape:label="path1"
     sodipodi:nodetypes="aaaaaaaaaaaaaaaaaaaaaaaaaaaaaaaaaaaaasssssssssssssssssssssscssscssssscssscssssscssscssssscssscssssssssssssssssssss" />
</svg>
