<?xml version="1.0" encoding="UTF-8" standalone="no"?>
<svg
   version="1.1"
   viewBox="-10 0 649 1200"
   id="svg2"
   sodipodi:docname="U+062D.svg"
   width="649"
   height="1200"
   inkscape:version="1.3 (0e150ed6c4, 2023-07-21)"
   xmlns:inkscape="http://www.inkscape.org/namespaces/inkscape"
   xmlns:sodipodi="http://sodipodi.sourceforge.net/DTD/sodipodi-0.dtd"
   xmlns="http://www.w3.org/2000/svg"
   xmlns:svg="http://www.w3.org/2000/svg">
  <defs
     id="defs2" />
  <sodipodi:namedview
     id="namedview2"
     pagecolor="#505050"
     bordercolor="#eeeeee"
     borderopacity="1"
     inkscape:showpageshadow="0"
     inkscape:pageopacity="0"
     inkscape:pagecheckerboard="0"
     inkscape:deskcolor="#505050"
     inkscape:zoom="0.562857"
     inkscape:cx="238.07113"
     inkscape:cy="582.74127"
     inkscape:window-width="1920"
     inkscape:window-height="1009"
     inkscape:window-x="1280"
     inkscape:window-y="42"
     inkscape:window-maximized="1"
     inkscape:current-layer="svg2" />
  <path
     fill="currentColor"
     d="m 360,1194 q -70,0 -133.5,-16 -63.5,-16 -112,-49.5 Q 66,1095 38,1044 10,993 10,924 10,832 53,753 96,674 176.5,613.5 257,553 368,516 319,500 265.5,483.5 212,467 141,467 111,467 88.5,472 66,477 46,482 L 32,408 Q 58,397 90.5,390.5 123,384 156,384 q 46,0 82,8.5 36,8.5 68.5,20.5 32.5,12 68.5,24.5 36,12.5 80.5,21 Q 500,467 561,468 h 9 l 2,82 Q 514,550 448.5,565.5 383,581 320,611.5 257,642 205.5,686 154,730 123,787 92,844 92,914 q 0,70 38,113.5 38,43.5 101.5,63.5 63.5,20 138.5,20 99,0 201,-40 l 28,68 q -58,28 -119,41.5 -61,13.5 -120,13.5 z"
     id="path1" />
  <path
     fill="currentColor"
     d="M 314,194 Q 293,194 279.5,179.5 266,165 266,146 q 0,-18 13.5,-32 13.5,-14 34.5,-14 20,0 33.5,14 13.5,14 13.5,32 0,19 -13.5,33.5 Q 334,194 314,194 Z m 59,96 Q 352,290 338.5,275.5 325,261 325,243 325,225 338.5,210.5 352,196 373,196 q 20,0 33,14.5 13,14.5 13,32.5 0,18 -13,32.5 -13,14.5 -33,14.5 z m -115,0 Q 237,290 223.5,275.5 210,261 210,243 210,225 223.5,210.5 237,196 258,196 q 20,0 33,14.5 13,14.5 13,32.5 0,18 -13,32.5 -13,14.5 -33,14.5 z"
     id="path2" />
</svg>
